<svg width="40" height="40" viewBox="0 0 40 40" fill="none" xmlns="http://www.w3.org/2000/svg">
<path d="M30.5393 26.24C30.1574 27.1264 29.6849 27.9709 29.1293 28.76C28.6129 29.5701 28.0093 30.3213 27.3293 31C26.7022 31.6088 25.8726 31.9649 24.9993 32C24.2571 31.966 23.5278 31.793 22.8493 31.49C22.1184 31.1785 21.3338 31.0121 20.5393 31C19.7207 31.0167 18.9129 31.1898 18.1593 31.51C17.5102 31.8012 16.8176 31.9836 16.1093 32.05C15.6626 32.0425 15.222 31.9458 14.8132 31.7655C14.4045 31.5851 14.036 31.3249 13.7293 31C13.021 30.3121 12.3875 29.5512 11.8393 28.73C10.9833 27.5001 10.3096 26.1528 9.83932 24.73C9.29917 23.2108 9.0153 21.6123 8.99932 20C8.95595 18.4171 9.35044 16.853 10.1393 15.48C10.6969 14.4589 11.5145 13.6033 12.5093 13C13.4837 12.4183 14.5946 12.1043 15.7293 12.09C16.5858 12.1432 17.4274 12.3393 18.2193 12.67C18.8565 12.9534 19.5294 13.1485 20.2193 13.25C20.9694 13.0938 21.7027 12.8661 22.4093 12.57C23.3603 12.1823 24.383 12.0016 25.4093 12.04C26.3791 12.0673 27.3297 12.3168 28.1879 12.7693C29.046 13.2218 29.7889 13.8652 30.3593 14.65C29.4543 15.1277 28.7011 15.8492 28.185 16.7329C27.669 17.6166 27.4106 18.6271 27.4393 19.65C27.4291 20.4321 27.5852 21.2074 27.8972 21.9246C28.2092 22.6417 28.6701 23.2844 29.2493 23.81C29.7599 24.3044 30.3519 24.7069 30.9993 25C30.8493 25.42 30.6993 25.82 30.5393 26.21V26.24ZM25.4993 6.40001C25.4813 7.75287 24.9732 9.05327 24.0693 10.06C23.612 10.6899 23.0098 11.2005 22.3136 11.5486C21.6174 11.8967 20.8476 12.0721 20.0693 12.06C20.0588 11.8969 20.0588 11.7332 20.0693 11.57C20.112 10.1983 20.6482 8.88814 21.5793 7.88001C22.0973 7.29812 22.7263 6.82555 23.4293 6.49001C24.0867 6.15409 24.8035 5.95025 25.5393 5.89001C25.549 6.06321 25.549 6.23682 25.5393 6.41001L25.4993 6.40001Z" fill="white"/>
</svg>
