<svg width="40" height="40" viewBox="0 0 40 40" fill="none" xmlns="http://www.w3.org/2000/svg">
<path d="M10 36.6666C8.61111 36.6666 7.43056 36.1805 6.45833 35.2083C5.48611 34.2361 5 33.0555 5 31.6666V26.6666H10V3.33331H35V31.6666C35 33.0555 34.5139 34.2361 33.5417 35.2083C32.5694 36.1805 31.3889 36.6666 30 36.6666H10ZM30 33.3333C30.4722 33.3333 30.8681 33.1736 31.1875 32.8541C31.5069 32.5347 31.6667 32.1389 31.6667 31.6666V6.66665H13.3333V26.6666H28.3333V31.6666C28.3333 32.1389 28.4931 32.5347 28.8125 32.8541C29.1319 33.1736 29.5278 33.3333 30 33.3333ZM15 15V11.6666H30V15H15ZM15 20V16.6666H30V20H15ZM10 33.3333H25V30H8.33333V31.6666C8.33333 32.1389 8.49306 32.5347 8.8125 32.8541C9.13194 33.1736 9.52778 33.3333 10 33.3333ZM10 33.3333H8.33333H25H10Z" fill="#EC5C28"/>
</svg>
