<svg width="39" height="39" viewBox="0 0 39 39" fill="none" xmlns="http://www.w3.org/2000/svg">
<path d="M28.9993 12.3334H27.3327V9.00002C27.3327 4.40002 23.5993 0.666687 18.9993 0.666687C14.3993 0.666687 10.666 4.40002 10.666 9.00002V12.3334H8.99935C7.16602 12.3334 5.66602 13.8334 5.66602 15.6667V32.3334C5.66602 34.1667 7.16602 35.6667 8.99935 35.6667H28.9993C30.8327 35.6667 32.3327 34.1667 32.3327 32.3334V15.6667C32.3327 13.8334 30.8327 12.3334 28.9993 12.3334ZM18.9993 27.3334C17.166 27.3334 15.666 25.8334 15.666 24C15.666 22.1667 17.166 20.6667 18.9993 20.6667C20.8327 20.6667 22.3327 22.1667 22.3327 24C22.3327 25.8334 20.8327 27.3334 18.9993 27.3334ZM24.166 12.3334H13.8327V9.00002C13.8327 6.15002 16.1493 3.83335 18.9993 3.83335C21.8493 3.83335 24.166 6.15002 24.166 9.00002V12.3334Z" fill="#EC5C28"/>
</svg>
